<svg width="216" height="280" viewBox="0 0 216 280" fill="none" xmlns="http://www.w3.org/2000/svg">
<path fill-rule="evenodd" clip-rule="evenodd" d="M141.5 261.1C124.5 261.1 108.4 257.7 93.7 251.6C71.7 242.4 52.9 227 39.6 207.6C26.3 188.2 18.6 164.9 18.6 139.7C18.6 122.9 22 107 28.3 92.4C37.6 70.6 53.2 52.1 72.8 39C92.4 25.9 116 18.3 141.5 18.3V0C122 0 103.4 3.9 86.4 11C61 21.6 39.4 39.3 24.2 61.6C8.9 83.9 0 110.8 0 139.7C0 159 4 177.4 11.1 194.1C21.8 219.2 39.8 240.5 62.3 255.6C84.9 270.7 112.1 279.5 141.4 279.5V261.1H141.5Z" fill="#F05A28"/>
<path fill-rule="evenodd" clip-rule="evenodd" d="M78.5 214.2C67 204.6 58.4 193 52.6 180.3C46.8 167.6 43.8 153.9 43.8 140.1C43.8 129.1 45.7 118.1 49.4 107.6C53.2 97.1 58.8 87.1 66.5 78C76.1 66.6 87.8 58 100.5 52.2C113.2 46.4 127.1 43.5 140.9 43.5C151.9 43.5 163 45.4 173.5 49.1C184.1 52.9 194.1 58.5 203.2 66.1L215.1 52C204.3 43 192.3 36.2 179.7 31.8C167.1 27.3 154 25.1 140.9 25.1C124.4 25.1 108 28.6 92.8 35.5C77.6 42.4 63.7 52.7 52.3 66.2C43.2 77 36.5 88.9 32 101.4C27.5 113.9 25.3 127 25.3 140.1C25.3 156.5 28.8 172.9 35.7 188C42.6 203.1 53 217 66.6 228.3L78.5 214.2Z" fill="#F05A28"/>
<path fill-rule="evenodd" clip-rule="evenodd" d="M107 202.3C94.9 195.9 85.4 186.6 78.9 175.7C72.4 164.8 69 152.2 69 139.5C69 128.3 71.6 117 77.3 106.5C83.7 94.4 93.1 85 104.1 78.6C115.1 72.1 127.7 68.7 140.5 68.7C151.7 68.7 163.1 71.3 173.7 76.9L182.3 60.6C169 53.6 154.6 50.2 140.4 50.3C124.3 50.3 108.4 54.6 94.6 62.7C80.8 70.8 68.9 82.8 60.9 97.9C53.9 111.2 50.5 125.5 50.5 139.5C50.5 155.5 54.8 171.3 63 185C71.2 198.8 83.2 210.5 98.4 218.5L107 202.3Z" fill="#F05A28"/>
<path fill-rule="evenodd" clip-rule="evenodd" d="M141.6 184.7C135.3 184.7 129.3 183.4 123.9 181.1C115.7 177.7 108.8 171.9 103.9 164.6C99 157.3 96.1 148.6 96.1 139.2C96.1 132.9 97.4 126.9 99.7 121.5C103.1 113.4 108.9 106.4 116.2 101.5C123.5 96.6 132.2 93.7 141.6 93.7V75.3C132.8 75.3 124.4 77.1 116.7 80.3C105.2 85.2 95.5 93.2 88.6 103.4C81.6 113.7 77.6 126.1 77.6 139.3C77.6 148.1 79.4 156.5 82.6 164.2C87.5 175.7 95.6 185.4 105.8 192.3C116 199.1 128.3 203.1 141.6 203.1V184.7Z" fill="#F05A28"/>
<path fill-rule="evenodd" clip-rule="evenodd" d="M156.6 124.7C154.5 122.5 152.2 120.7 149.9 119.4C147.6 118.1 145.2 117.4 142.7 117.4C139.3 117.4 136.4 118 133.7 119.2C131.1 120.4 128.8 122 126.9 124.1C125 126.1 123.6 128.5 122.6 131.1C121.6 133.7 121.2 136.5 121.2 139.3C121.2 142.1 121.7 144.9 122.6 147.5C123.6 150.1 125 152.5 126.9 154.5C128.8 156.5 131 158.2 133.7 159.4C136.3 160.6 139.3 161.2 142.7 161.2C145.5 161.2 148.2 160.6 150.6 159.5C153 158.3 155.1 156.6 156.8 154.4L169 167.5C167.2 169.3 165.1 170.9 162.7 172.2C160.3 173.5 157.9 174.6 155.5 175.4C153.1 176.2 150.7 176.8 148.5 177.1C146.3 177.5 144.3 177.6 142.7 177.6C137.2 177.6 132 176.7 127.2 174.9C122.3 173.1 118.1 170.5 114.6 167.1C111 163.8 108.2 159.7 106.1 155C104 150.3 103 145 103 139.3C103 133.5 104 128.3 106.1 123.6C108.2 118.9 111 114.9 114.6 111.5C118.2 108.2 122.4 105.6 127.2 103.7C132.1 101.9 137.3 101 142.7 101C147.4 101 152.1 101.9 156.8 103.7C161.5 105.5 165.7 108.3 169.2 112.1L156.6 124.7Z" fill="white"/>
</svg>
