<svg width="96" height="96" viewBox="0 0 96 96" fill="none" xmlns="http://www.w3.org/2000/svg">
<path d="M94.8 46.9999C94.5 46.4999 94.1 46.1999 93.6 46.0999L83.8 43.5999C82.7 43.2999 81.6 43.9999 81.4 45.0999L79.2 53.9999L70.7 51.8999L70.3 51.7999C69.8 51.6999 69.2 51.7999 68.8 51.9999C68.3 52.2999 68 52.7 67.9 53.2L65.7 62.0999L56.8 59.8999C55.7 59.5999 54.6 60.2999 54.4 61.3999L52 70.2L43.1 67.9999C42.6 67.8999 42 68 41.6 68.2C41.1 68.5 40.8 68.8999 40.7 69.3999L40.5 70.2L38.2 79.5999C37.9 80.6999 38.6 81.7999 39.7 81.9999L78.5 91.7C79 91.8 79.4 91.8999 79.9 91.8999C82.4 91.8999 84.7 90.2 85.3 87.7L95.1 48.4999C95.2 47.9999 95.1 47.4999 94.8 46.9999ZM57.7 64.2L66.4 66.3999C66.9 66.5999 67.6 66.5 68.1 66.2C68.6 65.9 69 65.3 69 64.7L70.7 57.7999L76.3 65.2L73.5 76.3999L55.7 71.8999L57.7 64.2ZM81.4 86.7C81.2 87.6 80.3 88.0999 79.5 87.8999L42.6 78.7L44 73.2L74.6 80.8999C74.7 80.8999 74.9 80.9999 75 80.9999H75.1C75.2 80.9999 75.3 80.9999 75.5 80.8999H75.6C75.8 80.8999 75.9 80.8 76 80.7C76.5 80.4 76.8 79.9999 76.9 79.4999L80.4 65.3999C80.5 64.7999 80.4 64.2 80.1 63.7L75.2 57.2999L80 58.4999C81.1 58.7999 82.2 58.0999 82.4 56.9999L84.6 48.0999L90.6 49.5999L81.4 86.7Z" fill="black"/>
<path d="M40.5 63.8C41.6 63.8 42.5 62.9 42.5 61.8V52.6H51.6C52.7 52.6 53.6 51.7 53.6 50.6V41.5H62.7C63.8 41.5 64.7 40.6 64.7 39.5V30.3H72.9C74 30.3 74.9 29.4 74.9 28.3V10.6C74.9 7.5 72.4 5 69.3 5H5.6C2.5 5 0 7.5 0 10.6V68.8C0 71.9 2.5 74.4 5.6 74.4H29.3C30.4 74.4 31.3 73.5 31.3 72.4V63.9L40.5 63.8ZM49.6 48.6H40.5C39.4 48.6 38.5 49.5 38.5 50.6V59.8H13.8V53.7L21.6 47.8L28.4 51.7C29.2 52.1 30.1 52 30.8 51.4L45.7 37L49.6 40.1V48.6ZM27.3 70.3H5.6C4.7 70.3 4 69.6 4 68.7V10.6C4 9.7 4.7 9 5.6 9H69.3C70.2 9 70.9 9.7 70.9 10.6V26.4H62.8C61.7 26.4 60.8 27.3 60.8 28.4V37.6H52.8L46.9 32.9C46.1 32.3 45 32.3 44.3 33L29.1 47.5L22.5 43.7C21.8 43.3 20.9 43.3 20.3 43.8L10.6 51.1C10.1 51.5 9.8 52.1 9.8 52.7V61.8V61.9C9.8 62.4 10 62.9 10.4 63.3C10.8 63.7 11.3 63.9 11.8 63.9H27.3V70.3Z" fill="black"/>
<path d="M20.3 35.2998C25.3 35.2998 29.3 31.1998 29.3 26.2998C29.3 21.2998 25.2 17.2998 20.3 17.2998C15.3 17.2998 11.3 21.3998 11.3 26.2998C11.2 31.1998 15.3 35.2998 20.3 35.2998ZM20.3 21.1998C23.1 21.1998 25.3 23.4998 25.3 26.1998C25.3 28.9998 23 31.1998 20.3 31.1998C17.5 31.1998 15.3 28.8998 15.3 26.1998C15.2 23.3998 17.5 21.1998 20.3 21.1998Z" fill="black"/>
</svg>
