<svg xmlns:x="ns_extend;" xmlns:i="ns_ai;" xmlns:graph="ns_graphs;" xmlns="http://www.w3.org/2000/svg" xmlns:xlink="http://www.w3.org/1999/xlink" version="1.1" id="Layer_1" x="0px" y="0px" viewBox="0 0 120.4 72" style="enable-background:new 0 0 120.4 72;" xml:space="preserve">
 <g>
  <path fill="#FFFFFF" d="M33.9,26.1c0,1.5,0.2,2.7,0.4,3.6c0.3,0.9,0.7,1.8,1.3,2.9c0.2,0.3,0.3,0.6,0.3,0.9c0,0.4-0.2,0.8-0.8,1.2   l-2.5,1.7c-0.4,0.2-0.7,0.4-1,0.4c-0.4,0-0.8-0.2-1.2-0.6c-0.6-0.6-1-1.2-1.4-1.9c-0.4-0.7-0.8-1.4-1.2-2.4   c-3.1,3.7-7,5.5-11.8,5.5c-3.4,0-6-1-8-2.9s-3-4.5-3-7.7c0-3.4,1.2-6.2,3.6-8.2s5.7-3.1,9.8-3.1c1.4,0,2.8,0.1,4.2,0.3   c1.5,0.2,3,0.5,4.6,0.9v-2.9c0-3-0.6-5.2-1.9-6.4c-1.3-1.2-3.4-1.8-6.5-1.8c-1.4,0-2.8,0.2-4.3,0.5c-1.5,0.4-2.9,0.8-4.3,1.4   C9.6,7.7,9.1,7.9,8.8,8C8.5,8,8.3,8.1,8.2,8.1c-0.6,0-0.8-0.4-0.8-1.2v-2c0-0.6,0.1-1.1,0.3-1.4s0.6-0.6,1.1-0.8   c1.4-0.7,3.1-1.3,5-1.8c2-0.5,4-0.8,6.2-0.8c4.8,0,8.2,1.1,10.5,3.2c2.2,2.2,3.3,5.4,3.3,9.9L33.9,26.1L33.9,26.1z M17.7,32.2   c1.3,0,2.7-0.2,4.1-0.7c1.4-0.5,2.7-1.4,3.8-2.6c0.6-0.8,1.1-1.6,1.4-2.6c0.2-1,0.4-2.1,0.4-3.5v-1.7c-1.2-0.3-2.4-0.5-3.7-0.7   c-1.3-0.2-2.5-0.2-3.8-0.2c-2.7,0-4.6,0.5-6,1.6c-1.3,1.1-2,2.6-2,4.6c0,1.9,0.5,3.3,1.5,4.2C14.4,31.8,15.8,32.2,17.7,32.2z    M49.8,36.6c-0.7,0-1.2-0.1-1.5-0.4c-0.3-0.2-0.6-0.8-0.8-1.6l-9.4-31c-0.2-0.8-0.4-1.3-0.4-1.6c0-0.6,0.3-1,1-1h3.9   c0.8,0,1.3,0.1,1.6,0.4c0.3,0.2,0.6,0.8,0.8,1.6l6.7,26.5L57.9,3c0.2-0.8,0.4-1.3,0.8-1.6C59,1.2,59.6,1,60.3,1h3.2   c0.8,0,1.3,0.1,1.6,0.4c0.3,0.2,0.6,0.8,0.8,1.6l6.3,26.8L79.1,3c0.2-0.8,0.5-1.3,0.8-1.6C80.2,1.2,80.7,1,81.5,1h3.7   c0.6,0,1,0.3,1,1c0,0.2,0,0.4-0.1,0.6c0,0.2-0.1,0.6-0.3,1l-9.7,31c-0.2,0.8-0.5,1.3-0.8,1.6c-0.3,0.2-0.8,0.4-1.5,0.4h-3.4   c-0.8,0-1.3-0.1-1.6-0.4c-0.3-0.3-0.6-0.8-0.8-1.6L61.8,8.8l-6.2,25.8c-0.2,0.8-0.4,1.3-0.8,1.6c-0.3,0.3-0.9,0.4-1.6,0.4H49.8z    M101.3,37.6c-2.1,0-4.2-0.2-6.2-0.7c-2-0.5-3.6-1-4.6-1.6c-0.6-0.4-1.1-0.8-1.2-1.1S89,33.4,89,33.1v-2c0-0.8,0.3-1.2,0.9-1.2   c0.2,0,0.5,0,0.7,0.1c0.2,0.1,0.6,0.2,1,0.4c1.4,0.6,2.8,1.1,4.4,1.4c1.6,0.3,3.2,0.5,4.8,0.5c2.5,0,4.5-0.4,5.8-1.3   c1.4-0.9,2.1-2.2,2.1-3.8c0-1.1-0.4-2-1.1-2.8s-2.1-1.4-4-2.1l-5.8-1.8c-2.9-0.9-5.1-2.3-6.4-4.1c-1.3-1.8-2-3.7-2-5.8   c0-1.7,0.4-3.2,1.1-4.4s1.7-2.4,2.9-3.3c1.2-0.9,2.6-1.6,4.2-2.1c1.6-0.5,3.3-0.7,5-0.7c0.9,0,1.8,0,2.7,0.2   c0.9,0.1,1.8,0.3,2.6,0.4c0.8,0.2,1.6,0.4,2.3,0.6c0.7,0.2,1.3,0.5,1.7,0.7c0.6,0.3,1,0.6,1.2,1c0.2,0.3,0.4,0.8,0.4,1.3v1.9   c0,0.8-0.3,1.3-0.9,1.3c-0.3,0-0.8-0.2-1.5-0.5c-2.3-1-4.8-1.6-7.7-1.6c-2.3,0-4.1,0.4-5.3,1.1s-1.9,1.9-1.9,3.6   c0,1.1,0.4,2.1,1.2,2.8c0.8,0.8,2.3,1.5,4.4,2.2l5.7,1.8c2.9,0.9,5,2.2,6.2,3.8c1.2,1.6,1.8,3.5,1.8,5.6c0,1.7-0.4,3.3-1,4.6   c-0.7,1.4-1.7,2.6-2.9,3.5c-1.2,1-2.7,1.7-4.4,2.2C105.2,37.4,103.3,37.6,101.3,37.6z">
  </path>
  <g>
   <path fill="#FF9900" d="M108.9,57.1C95.7,66.8,76.5,72,60.1,72C37,72,16.2,63.5,0.5,49.3c-1.2-1.1-0.1-2.6,1.4-1.8    c17,9.9,37.9,15.8,59.6,15.8c14.6,0,30.7-3,45.5-9.3C109.1,53.1,111,55.5,108.9,57.1z">
   </path>
   <path fill="#FF9900" d="M114.3,50.9c-1.7-2.2-11.1-1-15.4-0.5c-1.3,0.2-1.5-1-0.3-1.8c7.5-5.3,19.9-3.8,21.3-2    c1.4,1.8-0.4,14.2-7.4,20.1c-1.1,0.9-2.1,0.4-1.6-0.8C112.5,61.9,116,53,114.3,50.9z">
   </path>
  </g>
 </g>
 <g>
  <path fill="#FFFFFF" d="M33.9,26.1c0,1.5,0.2,2.7,0.4,3.6c0.3,0.9,0.7,1.8,1.3,2.9c0.2,0.3,0.3,0.6,0.3,0.9c0,0.4-0.2,0.8-0.8,1.2   l-2.5,1.7c-0.4,0.2-0.7,0.4-1,0.4c-0.4,0-0.8-0.2-1.2-0.6c-0.6-0.6-1-1.2-1.4-1.9c-0.4-0.7-0.8-1.4-1.2-2.4   c-3.1,3.7-7,5.5-11.8,5.5c-3.4,0-6-1-8-2.9s-3-4.5-3-7.7c0-3.4,1.2-6.2,3.6-8.2s5.7-3.1,9.8-3.1c1.4,0,2.8,0.1,4.2,0.3   c1.5,0.2,3,0.5,4.6,0.9v-2.9c0-3-0.6-5.2-1.9-6.4c-1.3-1.2-3.4-1.8-6.5-1.8c-1.4,0-2.8,0.2-4.3,0.5c-1.5,0.4-2.9,0.8-4.3,1.4   C9.6,7.7,9.1,7.9,8.8,8C8.5,8,8.3,8.1,8.2,8.1c-0.6,0-0.8-0.4-0.8-1.2v-2c0-0.6,0.1-1.1,0.3-1.4s0.6-0.6,1.1-0.8   c1.4-0.7,3.1-1.3,5-1.8c2-0.5,4-0.8,6.2-0.8c4.8,0,8.2,1.1,10.5,3.2c2.2,2.2,3.3,5.4,3.3,9.9L33.9,26.1L33.9,26.1z M17.7,32.2   c1.3,0,2.7-0.2,4.1-0.7c1.4-0.5,2.7-1.4,3.8-2.6c0.6-0.8,1.1-1.6,1.4-2.6c0.2-1,0.4-2.1,0.4-3.5v-1.7c-1.2-0.3-2.4-0.5-3.7-0.7   c-1.3-0.2-2.5-0.2-3.8-0.2c-2.7,0-4.6,0.5-6,1.6c-1.3,1.1-2,2.6-2,4.6c0,1.9,0.5,3.3,1.5,4.2C14.4,31.8,15.8,32.2,17.7,32.2z    M49.8,36.6c-0.7,0-1.2-0.1-1.5-0.4c-0.3-0.2-0.6-0.8-0.8-1.6l-9.4-31c-0.2-0.8-0.4-1.3-0.4-1.6c0-0.6,0.3-1,1-1h3.9   c0.8,0,1.3,0.1,1.6,0.4c0.3,0.2,0.6,0.8,0.8,1.6l6.7,26.5L57.9,3c0.2-0.8,0.4-1.3,0.8-1.6C59,1.2,59.6,1,60.3,1h3.2   c0.8,0,1.3,0.1,1.6,0.4c0.3,0.2,0.6,0.8,0.8,1.6l6.3,26.8L79.1,3c0.2-0.8,0.5-1.3,0.8-1.6C80.2,1.2,80.7,1,81.5,1h3.7   c0.6,0,1,0.3,1,1c0,0.2,0,0.4-0.1,0.6c0,0.2-0.1,0.6-0.3,1l-9.7,31c-0.2,0.8-0.5,1.3-0.8,1.6c-0.3,0.2-0.8,0.4-1.5,0.4h-3.4   c-0.8,0-1.3-0.1-1.6-0.4c-0.3-0.3-0.6-0.8-0.8-1.6L61.8,8.8l-6.2,25.8c-0.2,0.8-0.4,1.3-0.8,1.6c-0.3,0.3-0.9,0.4-1.6,0.4H49.8z    M101.3,37.6c-2.1,0-4.2-0.2-6.2-0.7c-2-0.5-3.6-1-4.6-1.6c-0.6-0.4-1.1-0.8-1.2-1.1S89,33.4,89,33.1v-2c0-0.8,0.3-1.2,0.9-1.2   c0.2,0,0.5,0,0.7,0.1c0.2,0.1,0.6,0.2,1,0.4c1.4,0.6,2.8,1.1,4.4,1.4c1.6,0.3,3.2,0.5,4.8,0.5c2.5,0,4.5-0.4,5.8-1.3   c1.4-0.9,2.1-2.2,2.1-3.8c0-1.1-0.4-2-1.1-2.8s-2.1-1.4-4-2.1l-5.8-1.8c-2.9-0.9-5.1-2.3-6.4-4.1c-1.3-1.8-2-3.7-2-5.8   c0-1.7,0.4-3.2,1.1-4.4s1.7-2.4,2.9-3.3c1.2-0.9,2.6-1.6,4.2-2.1c1.6-0.5,3.3-0.7,5-0.7c0.9,0,1.8,0,2.7,0.2   c0.9,0.1,1.8,0.3,2.6,0.4c0.8,0.2,1.6,0.4,2.3,0.6c0.7,0.2,1.3,0.5,1.7,0.7c0.6,0.3,1,0.6,1.2,1c0.2,0.3,0.4,0.8,0.4,1.3v1.9   c0,0.8-0.3,1.3-0.9,1.3c-0.3,0-0.8-0.2-1.5-0.5c-2.3-1-4.8-1.6-7.7-1.6c-2.3,0-4.1,0.4-5.3,1.1s-1.9,1.9-1.9,3.6   c0,1.1,0.4,2.1,1.2,2.8c0.8,0.8,2.3,1.5,4.4,2.2l5.7,1.8c2.9,0.9,5,2.2,6.2,3.8c1.2,1.6,1.8,3.5,1.8,5.6c0,1.7-0.4,3.3-1,4.6   c-0.7,1.4-1.7,2.6-2.9,3.5c-1.2,1-2.7,1.7-4.4,2.2C105.2,37.4,103.3,37.6,101.3,37.6z">
  </path>
  <g>
   <path fill="#FF9900" d="M108.9,57.1C95.7,66.8,76.5,72,60.1,72C37,72,16.2,63.5,0.5,49.3c-1.2-1.1-0.1-2.6,1.4-1.8    c17,9.9,37.9,15.8,59.6,15.8c14.6,0,30.7-3,45.5-9.3C109.1,53.1,111,55.5,108.9,57.1z">
   </path>
   <path fill="#FF9900" d="M114.3,50.9c-1.7-2.2-11.1-1-15.4-0.5c-1.3,0.2-1.5-1-0.3-1.8c7.5-5.3,19.9-3.8,21.3-2    c1.4,1.8-0.4,14.2-7.4,20.1c-1.1,0.9-2.1,0.4-1.6-0.8C112.5,61.9,116,53,114.3,50.9z">
   </path>
  </g>
 </g>
</svg>