<svg width="121" height="72" viewBox="0 0 121 72" fill="none" xmlns="http://www.w3.org/2000/svg">
<path d="M33.9 26C33.9 27.5 34.1 28.7 34.3 29.6C34.6 30.5 35 31.4 35.6 32.5C35.8 32.8 35.9 33.1 35.9 33.4C35.9 33.8 35.7 34.2 35.1 34.6L32.6 36.3C32.2 36.5 31.9 36.7 31.6 36.7C31.2 36.7 30.8 36.5 30.4 36.1C29.8 35.5 29.4 34.9 29 34.2C28.6 33.5 28.2 32.8 27.8 31.8C24.7 35.5 20.8 37.3 16 37.3C12.6 37.3 9.99996 36.3 7.99996 34.4C5.99996 32.5 4.99996 29.9 4.99996 26.7C4.99996 23.3 6.19996 20.5 8.59996 18.5C11 16.5 14.3 15.4 18.4 15.4C19.8 15.4 21.2 15.5 22.6 15.7C24.1 15.9 25.6 16.2 27.2 16.6V13.7C27.2 10.7 26.6 8.5 25.3 7.3C24 6.1 21.9 5.5 18.8 5.5C17.4 5.5 16 5.7 14.5 6C13 6.4 11.6 6.8 10.2 7.4C9.59996 7.6 9.09996 7.8 8.79996 7.9C8.49996 7.9 8.29996 8 8.19996 8C7.59996 8 7.39996 7.6 7.39996 6.8V4.8C7.39996 4.2 7.49996 3.7 7.69996 3.4C7.89996 3.1 8.29996 2.8 8.79996 2.6C10.2 1.9 11.9 1.3 13.8 0.8C15.8 0.3 17.8 0 20 0C24.8 0 28.2 1.1 30.5 3.2C32.7 5.4 33.8 8.6 33.8 13.1L33.9 26ZM17.7 32.1C19 32.1 20.4 31.9 21.8 31.4C23.2 30.9 24.5 30 25.6 28.8C26.2 28 26.7 27.2 27 26.2C27.2 25.2 27.4 24.1 27.4 22.7V21C26.2 20.7 25 20.5 23.7 20.3C22.4 20.1 21.2 20.1 19.9 20.1C17.2 20.1 15.3 20.6 13.9 21.7C12.6 22.8 11.9 24.3 11.9 26.3C11.9 28.2 12.4 29.6 13.4 30.5C14.4 31.7 15.8 32.1 17.7 32.1ZM49.8 36.5C49.1 36.5 48.6 36.4 48.3 36.1C48 35.9 47.7 35.3 47.5 34.5L38.1 3.5C37.9 2.7 37.7 2.2 37.7 1.9C37.7 1.3 38 0.9 38.7 0.9H42.6C43.4 0.9 43.9 1 44.2 1.3C44.5 1.5 44.8 2.1 45 2.9L51.7 29.4L57.9 2.9C58.1 2.1 58.3 1.6 58.7 1.3C59 1.1 59.6 0.9 60.3 0.9H63.5C64.3 0.9 64.8 1 65.1 1.3C65.4 1.5 65.7 2.1 65.9 2.9L72.2 29.7L79.1 2.9C79.3 2.1 79.6 1.6 79.9 1.3C80.2 1.1 80.7 0.9 81.5 0.9H85.2C85.8 0.9 86.2 1.2 86.2 1.9C86.2 2.1 86.2 2.3 86.1 2.5C86.1 2.7 86 3.1 85.8 3.5L76.1 34.5C75.9 35.3 75.6 35.8 75.3 36.1C75 36.3 74.5 36.5 73.8 36.5H70.4C69.6 36.5 69.1 36.4 68.8 36.1C68.5 35.8 68.2 35.3 68 34.5L61.8 8.7L55.6 34.5C55.4 35.3 55.2 35.8 54.8 36.1C54.5 36.4 53.9 36.5 53.2 36.5H49.8ZM101.3 37.5C99.2 37.5 97.1 37.3 95.1 36.8C93.1 36.3 91.5 35.8 90.5 35.2C89.9 34.8 89.4 34.4 89.3 34.1C89.2 33.8 89 33.3 89 33V31C89 30.2 89.3 29.8 89.9 29.8C90.1 29.8 90.4 29.8 90.6 29.9C90.8 30 91.2 30.1 91.6 30.3C93 30.9 94.4 31.4 96 31.7C97.6 32 99.2 32.2 100.8 32.2C103.3 32.2 105.3 31.8 106.6 30.9C108 30 108.7 28.7 108.7 27.1C108.7 26 108.3 25.1 107.6 24.3C106.9 23.5 105.5 22.9 103.6 22.2L97.8 20.4C94.9 19.5 92.7 18.1 91.4 16.3C90.1 14.5 89.4 12.6 89.4 10.5C89.4 8.8 89.8 7.3 90.5 6.1C91.2 4.9 92.2 3.7 93.4 2.8C94.6 1.9 96 1.2 97.6 0.7C99.2 0.2 100.9 0 102.6 0C103.5 0 104.4 1.49012e-08 105.3 0.2C106.2 0.3 107.1 0.5 107.9 0.6C108.7 0.8 109.5 1 110.2 1.2C110.9 1.4 111.5 1.7 111.9 1.9C112.5 2.2 112.9 2.5 113.1 2.9C113.3 3.2 113.5 3.7 113.5 4.2V6.1C113.5 6.9 113.2 7.4 112.6 7.4C112.3 7.4 111.8 7.2 111.1 6.9C108.8 5.9 106.3 5.3 103.4 5.3C101.1 5.3 99.3 5.7 98.1 6.4C96.9 7.1 96.2 8.3 96.2 10C96.2 11.1 96.6 12.1 97.4 12.8C98.2 13.6 99.7 14.3 101.8 15L107.5 16.8C110.4 17.7 112.5 19 113.7 20.6C114.9 22.2 115.5 24.1 115.5 26.2C115.5 27.9 115.1 29.5 114.5 30.8C113.8 32.2 112.8 33.4 111.6 34.3C110.4 35.3 108.9 36 107.2 36.5C105.2 37.3 103.3 37.5 101.3 37.5Z" fill="black"/>
<path d="M108.9 57C95.7 66.7 76.5 71.9 60.1 71.9C37 71.9 16.2 63.4 0.499959 49.2C-0.700041 48.1 0.399959 46.6 1.89996 47.4C18.9 57.3 39.8 63.2 61.5 63.2C76.1 63.2 92.2 60.2 107 53.9C109.1 53 111 55.4 108.9 57Z" fill="#FF9900"/>
<path d="M114.3 50.8C112.6 48.6 103.2 49.8 98.9 50.3C97.6 50.5 97.4 49.3 98.6 48.5C106.1 43.2 118.5 44.7 119.9 46.5C121.3 48.3 119.5 60.7 112.5 66.6C111.4 67.5 110.4 67 110.9 65.8C112.5 61.8 116 52.9 114.3 50.8Z" fill="#FF9900"/>
</svg>
