<?xml version="1.0" standalone="no"?>
<!DOCTYPE svg PUBLIC "-//W3C//DTD SVG 1.1//EN" "http://www.w3.org/Graphics/SVG/1.1/DTD/svg11.dtd">
<svg version="1.1" xmlns="http://www.w3.org/2000/svg" viewBox="0 0 188.666748046875 201.33328247070312" width="377.33349609375" height="402.66656494140625"><!-- svg-source:excalidraw --><metadata></metadata><defs><style class="style-fonts">
      </style></defs><g stroke-linecap="round"><g transform="translate(48.6666259765625 167.6666259765625) rotate(272.6425465329848 21.333343505859375 -23)"><path d="M0 0 C0.89 -6, -1.78 -28.33, 5.33 -36 C12.44 -43.67, 36.44 -44.33, 42.67 -46 M0 0 C0.89 -6, -1.78 -28.33, 5.33 -36 C12.44 -43.67, 36.44 -44.33, 42.67 -46" stroke="#3bc9db" stroke-width="4" fill="none"></path></g></g><mask></mask><g stroke-linecap="round"><g transform="translate(48.666656494140625 82.99993896484375) rotate(0 21.333343505859375 -23)"><path d="M0 0 C0.89 -6, -1.78 -28.33, 5.33 -36 C12.44 -43.67, 36.44 -44.33, 42.67 -46 M0 0 C0.89 -6, -1.78 -28.33, 5.33 -36 C12.44 -43.67, 36.44 -44.33, 42.67 -46" stroke="#1971c2" stroke-width="4" fill="none"></path></g></g><mask></mask><g stroke-linecap="round" transform="translate(91.99996948242188 10) rotate(0 42.666656494140625 28)"><path d="M14 0 C33.3 0, 52.6 0, 71.33 0 C80.67 0, 85.33 4.67, 85.33 14 C85.33 22.59, 85.33 31.17, 85.33 42 C85.33 51.33, 80.67 56, 71.33 56 C59.25 56, 47.17 56, 14 56 C4.67 56, 0 51.33, 0 42 C0 35.02, 0 28.04, 0 14 C0 4.67, 4.67 0, 14 0" stroke="none" stroke-width="0" fill="#6e6efd"></path><path d="M14 0 C26.45 0, 38.9 0, 71.33 0 M14 0 C34.29 0, 54.57 0, 71.33 0 M71.33 0 C80.67 0, 85.33 4.67, 85.33 14 M71.33 0 C80.67 0, 85.33 4.67, 85.33 14 M85.33 14 C85.33 21.33, 85.33 28.65, 85.33 42 M85.33 14 C85.33 24.83, 85.33 35.67, 85.33 42 M85.33 42 C85.33 51.33, 80.67 56, 71.33 56 M85.33 42 C85.33 51.33, 80.67 56, 71.33 56 M71.33 56 C54.16 56, 36.98 56, 14 56 M71.33 56 C56.74 56, 42.15 56, 14 56 M14 56 C4.67 56, 0 51.33, 0 42 M14 56 C4.67 56, 0 51.33, 0 42 M0 42 C0 35.42, 0 28.84, 0 14 M0 42 C0 36.02, 0 30.04, 0 14 M0 14 C0 4.67, 4.67 0, 14 0 M0 14 C0 4.67, 4.67 0, 14 0" stroke="transparent" stroke-width="2" fill="none"></path></g><g stroke-linecap="round" transform="translate(10 74) rotate(0 42.666656494140625 28)"><path d="M14 0 C26.53 0, 39.07 0, 71.33 0 C80.67 0, 85.33 4.67, 85.33 14 C85.33 22.12, 85.33 30.23, 85.33 42 C85.33 51.33, 80.67 56, 71.33 56 C54.51 56, 37.68 56, 14 56 C4.67 56, 0 51.33, 0 42 C0 30.85, 0 19.69, 0 14 C0 4.67, 4.67 0, 14 0" stroke="none" stroke-width="0" fill="#64b5f6"></path><path d="M14 0 C32.46 0, 50.93 0, 71.33 0 M14 0 C33.25 0, 52.49 0, 71.33 0 M71.33 0 C80.67 0, 85.33 4.67, 85.33 14 M71.33 0 C80.67 0, 85.33 4.67, 85.33 14 M85.33 14 C85.33 24.24, 85.33 34.47, 85.33 42 M85.33 14 C85.33 22.11, 85.33 30.22, 85.33 42 M85.33 42 C85.33 51.33, 80.67 56, 71.33 56 M85.33 42 C85.33 51.33, 80.67 56, 71.33 56 M71.33 56 C52.22 56, 33.11 56, 14 56 M71.33 56 C57.74 56, 44.14 56, 14 56 M14 56 C4.67 56, 0 51.33, 0 42 M14 56 C4.67 56, 0 51.33, 0 42 M0 42 C0 31.36, 0 20.72, 0 14 M0 42 C0 35.69, 0 29.38, 0 14 M0 14 C0 4.67, 4.67 0, 14 0 M0 14 C0 4.67, 4.67 0, 14 0" stroke="transparent" stroke-width="2" fill="none"></path></g><g stroke-linecap="round" transform="translate(93.33343505859375 135.33328247070312) rotate(0 42.666656494140625 28)"><path d="M14 0 C36.93 0, 59.87 0, 71.33 0 C80.67 0, 85.33 4.67, 85.33 14 C85.33 24.52, 85.33 35.05, 85.33 42 C85.33 51.33, 80.67 56, 71.33 56 C57.62 56, 43.91 56, 14 56 C4.67 56, 0 51.33, 0 42 C0 31.15, 0 20.29, 0 14 C0 4.67, 4.67 0, 14 0" stroke="none" stroke-width="0" fill="#99e9f2"></path><path d="M14 0 C35.58 0, 57.16 0, 71.33 0 M14 0 C28.1 0, 42.21 0, 71.33 0 M71.33 0 C80.67 0, 85.33 4.67, 85.33 14 M71.33 0 C80.67 0, 85.33 4.67, 85.33 14 M85.33 14 C85.33 22.84, 85.33 31.68, 85.33 42 M85.33 14 C85.33 23.35, 85.33 32.7, 85.33 42 M85.33 42 C85.33 51.33, 80.67 56, 71.33 56 M85.33 42 C85.33 51.33, 80.67 56, 71.33 56 M71.33 56 C52.55 56, 33.77 56, 14 56 M71.33 56 C48.49 56, 25.65 56, 14 56 M14 56 C4.67 56, 0 51.33, 0 42 M14 56 C4.67 56, 0 51.33, 0 42 M0 42 C0 34.96, 0 27.93, 0 14 M0 42 C0 32.62, 0 23.24, 0 14 M0 14 C0 4.67, 4.67 0, 14 0 M0 14 C0 4.67, 4.67 0, 14 0" stroke="transparent" stroke-width="2" fill="none"></path></g></svg>