<svg width="34" height="32" viewBox="0 0 34 32" fill="none" xmlns="http://www.w3.org/2000/svg">
<path d="M12.8735 20.5407L23.955 12.3506C24.4983 11.9491 25.2748 12.1057 25.5337 12.7294C26.8961 16.0185 26.2874 19.9712 23.5767 22.6851C20.8661 25.3989 17.0945 25.9941 13.6472 24.6386L9.88126 26.3843C15.2827 30.0806 21.8417 29.1665 25.9404 25.0601C29.1915 21.8051 30.1984 17.3683 29.2569 13.3673L29.2654 13.3758C27.9001 7.49809 29.6011 5.14871 33.0854 0.344576C33.1678 0.230667 33.2503 0.116757 33.3328 0L28.7477 4.59055V4.57631L12.8707 20.5436" fill="black"/>
<path d="M10.5867 22.5313C6.70979 18.8235 7.37821 13.0853 10.6862 9.7763C13.1323 7.32722 17.14 6.32767 20.6385 7.7971L24.3959 6.05998C23.719 5.57017 22.8514 5.04334 21.8559 4.67313C17.3562 2.81926 11.969 3.74192 8.31115 7.40126C4.79271 10.9239 3.68626 16.3403 5.58628 20.9622C7.0056 24.4165 4.67893 26.8598 2.3352 29.326C1.50465 30.2002 0.67126 31.0745 0 32L10.5838 22.5341" fill="black"/>
</svg>
