<svg width="302" height="409" viewBox="0 0 302 409" fill="none" xmlns="http://www.w3.org/2000/svg">
<path d="M97.1018 316.15C97.1018 316.15 81.4797 325.235 108.22 328.309C140.614 332.004 157.171 331.474 192.87 324.718C192.87 324.718 202.255 330.603 215.363 335.7C135.335 369.998 34.2443 333.713 97.1018 316.15ZM87.3228 271.392C87.3228 271.392 69.8011 284.362 96.5608 287.13C131.166 290.7 158.494 290.992 205.782 281.886C205.782 281.886 212.324 288.517 222.609 292.144C125.849 320.437 18.0778 294.375 87.3228 271.392Z" fill="#5382A1"/>
<path d="M169.763 195.469C189.481 218.172 164.583 238.602 164.583 238.602C164.583 238.602 214.65 212.755 191.656 180.388C170.18 150.203 153.711 135.206 242.87 83.4975C242.87 83.4975 102.92 118.449 169.763 195.469Z" fill="#E76F00"/>
<path d="M275.606 349.255C275.606 349.255 287.166 358.782 262.874 366.15C216.681 380.143 70.6132 384.369 30.0363 366.708C15.4499 360.362 42.8035 351.556 51.4079 349.708C60.3814 347.762 65.5094 348.124 65.5094 348.124C49.2879 336.697 -39.3398 370.562 20.4909 380.261C183.658 406.722 317.93 368.346 275.606 349.255ZM104.614 225.019C104.614 225.019 30.3151 242.666 78.3031 249.074C98.5651 251.787 138.957 251.173 176.58 248.021C207.328 245.427 238.204 239.914 238.204 239.914C238.204 239.914 227.362 244.557 219.518 249.912C144.068 269.756 -1.68611 260.524 40.2747 240.226C75.7611 223.073 104.614 225.019 104.614 225.019ZM237.898 299.519C314.596 259.664 279.135 221.363 254.382 226.524C248.315 227.787 245.61 228.881 245.61 228.881C245.61 228.881 247.863 225.353 252.163 223.825C301.13 206.61 338.789 274.6 236.355 301.529C236.355 301.529 237.544 300.469 237.898 299.519Z" fill="#5382A1"/>
<path d="M191.656 0C191.656 0 234.133 42.4897 151.369 107.83C85.0013 160.242 136.235 190.126 151.342 224.272C112.603 189.317 84.1727 158.549 103.246 129.912C131.24 87.8751 208.795 67.4941 191.656 0Z" fill="#E76F00"/>
<path d="M112.151 407.518C185.771 412.23 298.824 404.903 301.5 370.069C301.5 370.069 296.355 383.274 240.657 393.762C177.822 405.586 100.32 404.207 54.3542 396.628C54.3565 396.626 63.7652 404.415 112.151 407.518Z" fill="#5382A1"/>
</svg>
