<svg width="63" height="32" viewBox="0 0 63 32" fill="none" xmlns="http://www.w3.org/2000/svg">
<path fill-rule="evenodd" clip-rule="evenodd" d="M15.81 0H46.41C55.13 0 62.22 7.12 62.22 15.87C62.22 24.62 55.13 31.74 46.41 31.74H15.81C7.09 31.73 0 24.61 0 15.87C0 7.13 7.09 0 15.81 0ZM29.86 24.59C30.24 24.99 30.81 24.97 31.32 24.87C31.55 24.68 31.22 24.44 30.9 24.21C30.71 24.07 30.52 23.94 30.47 23.82C30.65 23.61 30.13 23.12 29.72 22.74C29.55 22.58 29.4 22.44 29.33 22.35C29.04 22.04 28.93 21.64 28.81 21.24C28.73 20.98 28.66 20.71 28.53 20.47C27.74 18.63 26.83 16.81 25.56 15.26C24.74 14.23 23.81 13.3 22.88 12.38C22.28 11.78 21.68 11.19 21.11 10.56C20.52 9.95 20.17 9.21 19.82 8.46C19.52 7.83 19.23 7.21 18.79 6.66C17.48 4.71 13.33 4.18 12.72 6.93C12.72 7.01 12.7 7.07 12.62 7.12C12.28 7.37 11.98 7.65 11.73 7.99C11.11 8.85 11.02 10.31 11.79 11.08C11.79 11.06 11.79 11.05 11.79 11.03C11.82 10.64 11.84 10.27 12.15 9.99C12.74 10.5 13.64 10.68 14.33 10.3C15.16 11.49 15.42 12.93 15.69 14.37C15.91 15.57 16.13 16.78 16.68 17.85C16.69 17.87 16.7 17.89 16.71 17.91C17.03 18.45 17.36 18.99 17.78 19.46C17.93 19.69 18.24 19.95 18.55 20.2C18.96 20.53 19.36 20.86 19.4 21.15C19.4 21.27 19.4 21.4 19.4 21.53C19.4 22.28 19.4 23.06 19.88 23.68C20.15 24.22 19.49 24.76 18.97 24.7C18.68 24.74 18.37 24.66 18.05 24.59C17.62 24.49 17.2 24.38 16.85 24.59C16.75 24.69 16.61 24.7 16.47 24.7C16.3 24.7 16.14 24.7 16.04 24.88C16.02 24.93 15.97 24.99 15.92 25.05C15.81 25.18 15.69 25.33 15.83 25.44C15.84 25.44 15.86 25.42 15.87 25.41C16.08 25.25 16.29 25.09 16.57 25.19C16.53 25.4 16.67 25.46 16.81 25.52C16.83 25.52 16.86 25.54 16.88 25.55C16.88 25.6 16.87 25.65 16.86 25.7C16.84 25.82 16.81 25.93 16.91 26.04C16.95 26 16.99 25.95 17.03 25.9C17.12 25.78 17.22 25.66 17.39 25.61C17.76 26.11 18.14 25.9 18.61 25.64C19.14 25.35 19.8 24.99 20.71 25.5C20.36 25.48 20.05 25.52 19.81 25.81C19.75 25.87 19.7 25.95 19.81 26.03C20.35 25.68 20.57 25.81 20.78 25.92C20.93 26.01 21.08 26.09 21.33 25.98C21.39 25.95 21.45 25.92 21.51 25.88C21.91 25.66 22.32 25.44 22.81 25.52C22.45 25.62 22.32 25.85 22.18 26.1C22.11 26.22 22.04 26.35 21.94 26.47C21.89 26.52 21.86 26.59 21.92 26.68C22.67 26.62 22.95 26.43 23.34 26.17C23.52 26.05 23.73 25.91 24.02 25.76C24.34 25.56 24.66 25.69 24.97 25.81C25.31 25.94 25.63 26.07 25.93 25.78C26.03 25.69 26.14 25.69 26.26 25.69C26.3 25.69 26.35 25.69 26.39 25.69C26.3 25.19 25.77 25.19 25.23 25.2C24.61 25.2 23.98 25.21 24 24.44C24.58 24.05 24.58 23.36 24.59 22.72C24.59 22.56 24.59 22.41 24.6 22.26C25.02 22.5 25.47 22.68 25.92 22.86C26.34 23.03 26.76 23.2 27.15 23.42C27.56 24.08 28.2 24.95 29.05 24.89C29.07 24.82 29.09 24.77 29.12 24.7C29.17 24.7 29.22 24.72 29.27 24.73C29.49 24.79 29.73 24.85 29.85 24.58L29.86 24.59ZM46.53 17.11C47.02 17.6 47.69 17.88 48.39 17.88C49.09 17.88 49.75 17.6 50.25 17.11C50.74 16.62 51.02 15.95 51.02 15.26C51.02 14.57 50.74 13.9 50.25 13.41C49.76 12.92 49.09 12.64 48.39 12.64C48.06 12.64 47.74 12.7 47.45 12.82L45.95 10.62L44.9 11.34L46.41 13.55C46 14.02 45.77 14.63 45.77 15.26C45.77 15.95 46.05 16.62 46.54 17.11H46.53ZM41.81 10C42.18 10.18 42.58 10.28 43 10.27C43.56 10.27 44.11 10.08 44.55 9.75C45 9.41 45.33 8.94 45.49 8.41C45.65 7.87 45.64 7.3 45.45 6.77C45.26 6.24 44.91 5.79 44.44 5.48C44.1 5.25 43.71 5.11 43.3 5.05C42.89 5 42.48 5.05 42.09 5.18C41.7 5.32 41.35 5.55 41.07 5.84C40.79 6.14 40.58 6.5 40.46 6.89C40.34 7.28 40.32 7.7 40.39 8.1C40.46 8.5 40.63 8.89 40.87 9.21C41.12 9.54 41.44 9.8 41.81 9.99V10ZM41.81 25.21C42.18 25.39 42.58 25.49 43 25.48C43.56 25.48 44.11 25.29 44.55 24.96C45 24.62 45.33 24.15 45.49 23.62C45.65 23.08 45.64 22.51 45.45 21.98C45.26 21.45 44.91 21 44.44 20.69C44.1 20.46 43.71 20.32 43.3 20.26C42.89 20.21 42.48 20.26 42.09 20.39C41.7 20.53 41.35 20.76 41.07 21.05C40.79 21.35 40.58 21.71 40.46 22.1C40.34 22.49 40.32 22.91 40.39 23.31C40.46 23.71 40.63 24.1 40.87 24.42C41.12 24.75 41.44 25.01 41.81 25.2V25.21ZM44.23 15.91V14.61H40.21C40.11 14.22 39.92 13.85 39.65 13.54L41.16 11.3L40.06 10.57L38.55 12.81C38.27 12.71 37.98 12.66 37.69 12.65C37 12.65 36.33 12.92 35.84 13.41C35.35 13.9 35.07 14.56 35.07 15.25C35.07 15.94 35.35 16.6 35.84 17.09C36.33 17.58 37 17.85 37.69 17.85C37.98 17.85 38.28 17.79 38.55 17.69L40.06 19.93L41.15 19.2L39.65 16.96C39.92 16.65 40.11 16.29 40.21 15.89H44.23V15.91Z" fill="white"/>
</svg>
