<svg width="45" height="45" viewBox="0 0 45 45" fill="none" xmlns="http://www.w3.org/2000/svg">
<circle cx="22.5" cy="22.5" r="22.5" fill="white"/>
<path d="M18.2344 27.0407L29.3159 18.8506C29.8592 18.4491 30.6357 18.6057 30.8946 19.2294C32.257 22.5185 31.6483 26.4712 28.9376 29.1851C26.227 31.8989 22.4554 32.4941 19.0081 31.1386L15.2422 32.8843C20.6436 36.5806 27.2026 35.6665 31.3013 31.5601C34.5524 28.3051 35.5593 23.8683 34.6178 19.8673L34.6263 19.8758C33.261 13.9981 34.962 11.6487 38.4463 6.84458C38.5287 6.73067 38.6112 6.61676 38.6937 6.5L34.1086 11.0905V11.0763L18.2316 27.0436" fill="black"/>
<path d="M15.9538 29.0312C12.077 25.3234 12.7454 19.5852 16.0533 16.2762C18.4994 13.8271 22.5071 12.8276 26.0056 14.297L29.763 12.5599C29.0861 12.0701 28.2185 11.5432 27.223 11.173C22.7233 9.31914 17.3361 10.2418 13.6783 13.9011C10.1599 17.4238 9.05345 22.8402 10.9535 27.4621C12.3728 30.9164 10.0461 33.3597 7.70239 35.8259C6.87184 36.7001 6.03845 37.5744 5.36719 38.4999L15.9509 29.034" fill="black"/>
</svg>
