<svg width="412" height="360" viewBox="0 0 412 360" fill="none" xmlns="http://www.w3.org/2000/svg">
<path d="M335.359 190.012H391.917C403.008 190.012 412 199.008 412 210.104V243.473C412 254.569 403.008 263.565 391.917 263.565H342.595C337.268 263.565 332.16 265.681 328.394 269.449L243.762 354.115C239.995 357.883 234.887 360 229.561 360H188.878C177.988 360 169.082 351.318 168.801 340.427L167.922 306.357C167.631 295.061 176.705 285.747 187.999 285.747H223.025C228.352 285.747 233.46 283.63 237.226 279.863L321.158 195.897C324.924 192.129 330.033 190.012 335.359 190.012Z" fill="#7528FC"/>
<path d="M167.444 9.4421e-08L224.001 0C235.093 -1.85173e-08 244.084 8.99524 244.084 20.0914V53.4609C244.084 64.5571 235.093 73.5523 224.001 73.5523H174.679C169.353 73.5523 164.244 75.6691 160.478 79.437L75.846 164.103C72.0797 167.871 66.9714 169.988 61.6449 169.988H20.9624C10.0725 169.988 1.16662 161.305 0.885686 150.415L0.00682641 116.345C-0.284547 105.049 8.7889 95.7348 20.0836 95.7348H55.1095C60.436 95.7348 65.5443 93.618 69.3107 89.8502L153.242 5.88465C157.009 2.11677 162.117 1.03313e-07 167.444 9.4421e-08Z" fill="#FF3276"/>
<path d="M335.359 43.0012H391.917C403.008 43.0012 412 51.9964 412 63.0926V96.4621C412 107.558 403.008 116.554 391.917 116.554H342.595C337.268 116.554 332.16 118.67 328.394 122.438L243.762 207.104C239.995 210.872 234.887 212.989 229.561 212.989H180.129C174.95 212.989 169.972 214.99 166.233 218.575L71.2188 309.675C67.4799 313.26 62.5012 315.262 57.3223 315.262H22.6898C11.598 315.262 2.60637 306.266 2.60637 295.17V260.867C2.60637 249.771 11.598 240.775 22.6897 240.775H57.0737C62.4001 240.775 67.5084 238.659 71.2748 234.891L161.509 144.621C165.275 140.853 170.383 138.736 175.71 138.736H223.025C228.352 138.736 233.46 136.619 237.226 132.851L321.158 48.8858C324.924 45.1179 330.033 43.0012 335.359 43.0012Z" fill="#F480FF"/>
</svg>
